# xmcd
#
# Track frame offsets: 
#        150
#        29057
#        47047
#        73316
#        93269
#        113240
#        129612
#        155420
#        170958
#        194154
#        213149
#        233452
#        255950
#        273604
#
# Disc length: 3923 seconds
#
# Revision: 0
# Processed by: cddbd v1.5.2PL0 Copyright (c) Steve Scherf et al.
# Submitted via: ExactAudioCopy v1.0b3
#
DISCID=d00f510e
DTITLE=Stacy Mitchhart Band - Grown Ass Man
DYEAR=2008
DGENRE=Blues
TTITLE0=Grown Ass Man
TTITLE1=Say the Word
TTITLE2=Long Train Runnin'
TTITLE3=Why Did She Have to Leave?
TTITLE4=Feels Like I've Been Here Before
TTITLE5=We Could Make Love
TTITLE6=I'll Be There for You
TTITLE7=Tell Me What You Want
TTITLE8=Got to Let You Go
TTITLE9=Jazzy Sexy Lady
TTITLE10=Get It While the Gettin's Still Good
TTITLE11=What You Gonna Do with My Love
TTITLE12=Amazing Grace
TTITLE13=Grown Ass Man (Radio Edit) (Bonus Track)
EXTD=
EXTT0=
EXTT1=
EXTT2=
EXTT3=
EXTT4=
EXTT5=
EXTT6=
EXTT7=
EXTT8=
EXTT9=
EXTT10=
EXTT11=
EXTT12=
EXTT13=
PLAYORDER=
